<svg>
    <g id="SvgjsG1826" featurekey="inlineSymbolFeature-0" transform="matrix(0.7237254762283742,0,0,0.7237254762283742,189.6444347726725,16.36017041424515)" fill="#232931"><path xmlns="http://www.w3.org/2000/svg" d="M 70.001021,60.908126 C 68.622608,58.188108 67.145285,55.569902 65.575601,53.061639 58.094083,64.673965 45.56836,75.064135 29.698243,81.525375 l 5.309266,13.040633 C 51.421671,87.88435 63.626862,75.463114 70.001021,60.908126 Z" style="" stroke="none" fill="#232931" fill-opacity="1"></path><path xmlns="http://www.w3.org/2000/svg" d="m 37.525865,76.809637 c 2.171217,-1.206804 4.270728,-2.478348 6.294108,-3.809591 C 29.857827,66.307862 16.936783,52.331384 9.3857867,33.784604 L -3.6539196,39.093492 C 4.151638,58.27083 19.793082,71.718464 37.525865,76.809637 Z" style="" stroke="none" fill="#232931" fill-opacity="1"></path><path xmlns="http://www.w3.org/2000/svg" d="M 58.448894,18.069925 53.13963,5.029296 c -18.678298,7.604542 -31.913477,22.643386 -37.293764,39.803947 1.305283,2.150557 2.682822,4.213393 4.114126,6.201433 6.947823,-13.397889 20.595079,-25.679595 38.488902,-32.964751 z" style="" stroke="none" fill="#232931" fill-opacity="1"></path><path xmlns="http://www.w3.org/2000/svg" d="M 86.252811,60.179111 C 79.002346,42.370497 64.998815,29.506309 48.838299,23.681081 c -2.333081,1.368798 -4.578063,2.810777 -6.728291,4.32107 12.665286,7.216938 24.154499,20.421334 31.10217,37.486225 l 13.040633,-5.309265 z" style="" stroke="none" fill="#232931" fill-opacity="1"></path><circle xmlns="http://www.w3.org/2000/svg" style="" cx="43.209587" cy="51.021019" r="8.1112623" fill="#232931" fill-opacity="1" fill-rule="nonzero" stroke="none"></circle></g>
</svg>